<svg xmlns="http://www.w3.org/2000/svg" xmlns:xlink="http://www.w3.org/1999/xlink" viewBox="0,0,256,256" width="200px" height="200px" fill-rule="nonzero" fill="none"><g transform="translate(-58.88,-58.88) scale(1.46,1.46)"><g fill="none" fill-rule="nonzero" stroke="none" stroke-width="1" stroke-linecap="butt" stroke-linejoin="miter" stroke-miterlimit="10" stroke-dasharray="" stroke-dashoffset="0" font-family="none" font-weight="none" font-size="none" text-anchor="none" style="mix-blend-mode: normal"><g transform="scale(2.56,2.56)"><path d="M82,31v38c0,2.01 -0.46,3.92 -1.27,5.62c-1.12,2.33 -2.92,4.29 -5.15,5.58c-1.93,1.15 -4.18,1.8 -6.58,1.8h-38c-1.47,0 -2.89,-0.25 -4.21,-0.7h-0.01c-2.43,-0.83 -4.52,-2.35 -6.05,-4.34c-1.71,-2.2 -2.73,-4.96 -2.73,-7.96v-38c0,-0.59 0.04,-1.17 0.12,-1.74c0.1,-0.77 0.27,-1.52 0.51,-2.24c1.67,-5.23 6.58,-9.02 12.37,-9.02h38c0.43,0 0.85,0.02 1.26,0.06h0.03c0.77,0.08 1.51,0.22 2.23,0.43c4.7,1.32 8.33,5.21 9.24,10.07c0.09,0.45 0.15,0.91 0.19,1.38c0.04,0.35 0.05,0.7 0.05,1.06z" fill="#4e5fd8"></path><path d="M81.76,28.56c-0.91,-4.86 -4.54,-8.75 -9.24,-10.07c-0.74,-0.16 -1.48,-0.3 -2.23,-0.43h-0.03c-0.13,-0.023 -0.262,-0.038 -0.391,-0.06h-23.769c-10.24,1.72 -19.73,5.64 -27.98,11.26c-0.08,0.57 -0.12,1.15 -0.12,1.74v38c0,3 1.02,5.76 2.73,7.96c1.53,1.99 3.62,3.51 6.05,4.34h0.01c1.32,0.45 2.74,0.7 4.21,0.7h38c2.4,0 4.65,-0.65 6.58,-1.8c2.23,-1.29 4.03,-3.25 5.15,-5.58c0.81,-1.7 1.27,-3.61 1.27,-5.62v-38c0,-0.36 -0.01,-0.71 -0.05,-1.06c-0.04,-0.47 -0.1,-0.93 -0.19,-1.38z" fill="#7550cc"></path><path d="M82,31v38c0,2.01 -0.46,3.92 -1.27,5.62c-1.12,2.33 -2.92,4.29 -5.15,5.58c-1.93,1.15 -4.18,1.8 -6.58,1.8h-38c-1.47,0 -2.89,-0.25 -4.21,-0.7h-0.01c-2.43,-0.83 -4.52,-2.35 -6.05,-4.34c-1.71,-2.2 -2.73,-4.96 -2.73,-7.96v-30.97c10.95,-8.78 24.86,-14.03 40,-14.03c8.4,0 16.42,1.62 23.76,4.56c0.09,0.45 0.15,0.91 0.19,1.38c0.04,0.35 0.05,0.7 0.05,1.06z" fill="#9c32c8"></path><path d="M82,36.29v32.71c0,2.01 -0.46,3.92 -1.27,5.62c-1.12,2.33 -2.92,4.29 -5.15,5.58c-1.93,1.15 -4.18,1.8 -6.58,1.8h-38c-1.47,0 -2.89,-0.25 -4.21,-0.7h-0.01c-2.43,-0.83 -4.52,-2.35 -6.05,-4.34c-1.71,-2.2 -2.73,-4.96 -2.73,-7.96v-21.59c10.28,-10.15 24.41,-16.41 40,-16.41c8.57,0 16.71,1.89 24,5.29z" fill="#d515a3"></path><path d="M82,44.14v24.86c0,2.01 -0.46,3.92 -1.27,5.62c-1.12,2.33 -2.92,4.29 -5.15,5.58c-1.93,1.15 -4.18,1.8 -6.58,1.8h-38c-1.47,0 -2.89,-0.25 -4.21,-0.7h-0.01c-2.43,-0.83 -4.52,-2.35 -6.05,-4.34c-1.71,-2.2 -2.73,-4.96 -2.73,-7.96v-10.99c9.12,-12.15 23.64,-20.01 40,-20.01c8.69,0 16.87,2.22 24,6.14z" fill="#ec007a"></path><path d="M82,66.07v2.93c0,3 -1.02,5.76 -2.73,7.96c-1.53,1.99 -3.62,3.51 -6.05,4.34h-0.01c-1.32,0.45 -2.74,0.7 -4.21,0.7h-38c-2.4,0 -4.65,-0.65 -6.58,-1.8c-2.23,-1.29 -4.03,-3.25 -5.15,-5.58c-0.81,-1.7 -1.27,-3.61 -1.27,-5.62v-14.46c7.38,-5.97 16.77,-9.54 27,-9.54c15.74,0 29.5,8.45 37,21.07z" fill="#ff492e"></path><path d="M79.27,76.96c-1.53,1.99 -3.62,3.51 -6.05,4.34h-0.01c-1.32,0.45 -2.74,0.7 -4.21,0.7h-38c-2.4,0 -4.65,-0.65 -6.58,-1.8c-2.23,-1.29 -4.03,-3.25 -5.15,-5.58c-0.81,-1.7 -1.27,-3.61 -1.27,-5.62v-4.81c6.6,-7.47 16.25,-12.19 27,-12.19c16.03,0 29.61,10.48 34.27,24.96z" fill="#ff7a02"></path><path d="M73.21,81.3c-1.32,0.45 -2.74,0.7 -4.21,0.7h-38c-2.4,0 -4.65,-0.65 -6.58,-1.8c-2.23,-1.29 -4.03,-3.25 -5.15,-5.58c4.83,-9.28 14.54,-15.62 25.73,-15.62c13.71,0 25.2,9.51 28.21,22.3z" fill="#ffa823"></path><path d="M66.17,82h-35.17c-2.4,0 -4.65,-0.65 -6.58,-1.8c3.15,-8.3 11.18,-14.2 20.58,-14.2c10.07,0 18.56,6.77 21.17,16z" fill="#ffca58"></path><path d="M58.75,82h-27.5c2.32,-5.3 7.6,-9 13.75,-9c6.15,0 11.43,3.7 13.75,9z" fill="#ffdb73"></path><path d="M60,26.5h-20c-7.444,0 -13.5,6.056 -13.5,13.5v20c0,7.444 6.056,13.5 13.5,13.5h20c7.444,0 13.5,-6.056 13.5,-13.5v-20c0,-7.444 -6.056,-13.5 -13.5,-13.5zM69.5,60c0,5.238 -4.262,9.5 -9.5,9.5h-20c-5.238,0 -9.5,-4.262 -9.5,-9.5v-20c0,-5.238 4.262,-9.5 9.5,-9.5h20c5.238,0 9.5,4.262 9.5,9.5zM50,61.5c-6.341,0 -11.5,-5.159 -11.5,-11.5c0,-6.341 5.159,-11.5 11.5,-11.5c6.341,0 11.5,5.159 11.5,11.5c0,6.341 -5.159,11.5 -11.5,11.5zM50,42.5c-4.136,0 -7.5,3.365 -7.5,7.5c0,4.135 3.364,7.5 7.5,7.5c4.136,0 7.5,-3.365 7.5,-7.5c0,-4.135 -3.364,-7.5 -7.5,-7.5zM65.5,37.5c0,1.657 -1.343,3 -3,3c-1.657,0 -3,-1.343 -3,-3c0,-1.657 1.343,-3 3,-3c1.657,0 3,1.343 3,3z" fill="#ffffff"></path><path d="M60,74h-20c-7.72,0 -14,-6.28 -14,-14v-20c0,-7.72 6.28,-14 14,-14h20c7.72,0 14,6.28 14,14v20c0,7.72 -6.28,14 -14,14zM40,27c-7.168,0 -13,5.832 -13,13v20c0,7.168 5.832,13 13,13h20c7.168,0 13,-5.832 13,-13v-20c0,-7.168 -5.832,-13 -13,-13zM60,70h-20c-5.514,0 -10,-4.486 -10,-10v-20c0,-5.514 4.486,-10 10,-10h20c5.514,0 10,4.486 10,10v20c0,5.514 -4.486,10 -10,10zM40,31c-4.963,0 -9,4.037 -9,9v20c0,4.963 4.037,9 9,9h20c4.963,0 9,-4.037 9,-9v-20c0,-4.963 -4.037,-9 -9,-9zM50,62c-6.617,0 -12,-5.383 -12,-12c0,-6.617 5.383,-12 12,-12c6.617,0 12,5.383 12,12c0,6.617 -5.383,12 -12,12zM50,39c-6.065,0 -11,4.935 -11,11c0,6.065 4.935,11 11,11c6.065,0 11,-4.935 11,-11c0,-6.065 -4.935,-11 -11,-11zM50,58c-4.411,0 -8,-3.589 -8,-8c0,-4.411 3.589,-8 8,-8c4.411,0 8,3.589 8,8c0,4.411 -3.589,8 -8,8zM50,43c-3.859,0 -7,3.141 -7,7c0,3.859 3.141,7 7,7c3.859,0 7,-3.141 7,-7c0,-3.859 -3.141,-7 -7,-7zM62.5,41c-1.93,0 -3.5,-1.57 -3.5,-3.5c0,-1.93 1.57,-3.5 3.5,-3.5c1.93,0 3.5,1.57 3.5,3.5c0,1.93 -1.57,3.5 -3.5,3.5zM62.5,35c-1.379,0 -2.5,1.121 -2.5,2.5c0,1.379 1.121,2.5 2.5,2.5c1.379,0 2.5,-1.121 2.5,-2.5c0,-1.379 -1.121,-2.5 -2.5,-2.5zM69,83h-38c-7.72,0 -14,-6.28 -14,-14v-38c0,-7.72 6.28,-14 14,-14h38c7.72,0 14,6.28 14,14v38c0,7.72 -6.28,14 -14,14zM31,19c-6.617,0 -12,5.383 -12,12v38c0,6.617 5.383,12 12,12h38c6.617,0 12,-5.383 12,-12v-38c0,-6.617 -5.383,-12 -12,-12z" fill="#1f212b"></path></g></g></g></svg>